name analog
datacolumns 19
datarows 79
range 0.0 0.039
endheader
time	ground_force_vx	ground_force_vy	ground_force_vz	ground_force_px	ground_force_py	ground_force_pz	l_ground_force_vx	l_ground_force_vy	l_ground_force_vz	l_ground_force_px	l_ground_force_py	l_ground_force_pz	ground_torque_x	ground_torque_y	ground_torque_z	l_ground_torque_x	l_ground_torque_y	l_ground_torque_z
0.0	-0.0	-0.0	-0.0	7.475729942321777	-0.0153746008872985	-802.7779541015625	-0.0	-0.0	-0.0	-0.0	-0.0	-0.0	-0.0	-0.0	-0.0	-0.0	-0.0	-0.0
0.0005	-0.0	-0.0	-0.0	7.317862510681152	-0.2068447470664978	-802.7985229492188	-0.0	-0.0	-0.0	-0.0	-0.0	-0.0	-0.0	-0.0	-0.0	-0.0	-0.0	-0.0
0.001	-0.0	-0.0	-0.0	8.204730033874512	-0.524242639541626	-801.3443603515625	-0.0	-0.0	-0.0	-0.0	-0.0	-0.0	-0.0	-0.0	-0.0	-0.0	-0.0	-0.0
0.0015	-0.0	-0.0	-0.0	8.312620162963867	-0.175589457154274	-801.3016967773438	-0.0	-0.0	-0.0	-0.0	-0.0	-0.0	-0.0	-0.0	-0.0	-0.0	-0.0	-0.0
0.002	-0.0	-0.0	-0.0	9.27789306640625	0.618518054485321	-798.9785766601562	-0.0	-0.0	-0.0	-0.0	-0.0	-0.0	-0.0	-0.0	-0.0	-0.0	-0.0	-0.0
0.0025	-0.0	-0.0	-0.0	9.01846981048584	1.1586952209472656	-799.1487426757812	-0.0	-0.0	-0.0	-0.0	-0.0	-0.0	-0.0	-0.0	-0.0	-0.0	-0.0	-0.0
0.003	-0.0	-0.0	-0.0	10.078015327453612	1.7715272903442385	-794.3236083984375	-0.0	-0.0	-0.0	-0.0	-0.0	-0.0	-0.0	-0.0	-0.0	-0.0	-0.0	-0.0
0.0035	-0.0	-0.0	-0.0	9.643131256103516	2.1447222232818604	-794.5994873046875	-0.0	-0.0	-0.0	-0.0	-0.0	-0.0	-0.0	-0.0	-0.0	-0.0	-0.0	-0.0
0.004	-0.0	-0.0	-0.0	9.46481990814209	2.6852426528930664	-794.963134765625	-0.0	-0.0	-0.0	-0.0	-0.0	-0.0	-0.0	-0.0	-0.0	-0.0	-0.0	-0.0
0.0045000000000000005	-0.0	-0.0	-0.0	8.935409545898438	4.275390148162842	-792.5130615234375	-0.0	-0.0	-0.0	-0.0	-0.0	-0.0	-0.0	-0.0	-0.0	-0.0	-0.0	-0.0
0.005	-0.0	-0.0	-0.0	8.555526733398438	5.408039093017578	-792.900390625	-0.0	-0.0	-0.0	-0.0	-0.0	-0.0	-0.0	-0.0	-0.0	-0.0	-0.0	-0.0
0.0055	-0.0	-0.0	-0.0	7.571171283721924	5.787620067596436	-793.2305908203125	-0.0	-0.0	-0.0	-0.0	-0.0	-0.0	-0.0	-0.0	-0.0	-0.0	-0.0	-0.0
0.006	-0.0	-0.0	-0.0	7.071366310119629	6.592685222625732	-795.3377075195312	-0.0	-0.0	-0.0	-0.0	-0.0	-0.0	-0.0	-0.0	-0.0	-0.0	-0.0	-0.0
0.006500000000000001	-0.0	-0.0	-0.0	6.426149845123291	8.286136627197266	-801.7066650390625	-0.0	-0.0	-0.0	-0.0	-0.0	-0.0	-0.0	-0.0	-0.0	-0.0	-0.0	-0.0
0.007	-0.0	-0.0	-0.0	6.767880439758301	9.78618335723877	-803.1072387695312	-0.0	-0.0	-0.0	-0.0	-0.0	-0.0	-0.0	-0.0	-0.0	-0.0	-0.0	-0.0
0.0075	-0.0	-0.0	-0.0	5.607997894287109	12.269362449645996	-809.0745849609375	-0.0	-0.0	-0.0	-0.0	-0.0	-0.0	-0.0	-0.0	-0.0	-0.0	-0.0	-0.0
0.008	-0.0	-0.0	-0.0	5.460394859313965	13.35102367401123	-811.2297973632812	-0.0	-0.0	-0.0	-0.0	-0.0	-0.0	-0.0	-0.0	-0.0	-0.0	-0.0	-0.0
0.0085	-0.0	-0.0	-0.0	5.340117454528809	14.608009338378906	-816.1369018554688	-0.0	-0.0	-0.0	-0.0	-0.0	-0.0	-0.0	-0.0	-0.0	-0.0	-0.0	-0.0
0.009000000000000001	-0.0	-0.0	-0.0	4.823697090148926	16.11995506286621	-817.5990600585938	-0.0	-0.0	-0.0	-0.0	-0.0	-0.0	-0.0	-0.0	-0.0	-0.0	-0.0	-0.0
0.0095	-0.0	-0.0	-0.0	5.078596591949463	17.625431060791016	-819.7178955078125	-0.0	-0.0	-0.0	-0.0	-0.0	-0.0	-0.0	-0.0	-0.0	-0.0	-0.0	-0.0
0.01	-0.0	-0.0	-0.0	4.562645435333252	17.730501174926758	-821.5604858398438	-0.0	-0.0	-0.0	-0.0	-0.0	-0.0	-0.0	-0.0	-0.0	-0.0	-0.0	-0.0
0.0105	-0.0	-0.0	-0.0	4.457261562347412	18.7141227722168	-823.955810546875	-0.0	-0.0	-0.0	-0.0	-0.0	-0.0	-0.0	-0.0	-0.0	-0.0	-0.0	-0.0
0.011	-0.0	-0.0	-0.0	3.670831680297852	18.806514739990234	-826.8333740234375	-0.0	-0.0	-0.0	-0.0	-0.0	-0.0	-0.0	-0.0	-0.0	-0.0	-0.0	-0.0
0.0115	-0.0	-0.0	-0.0	4.192893981933594	19.51955795288086	-829.6328125	-0.0	-0.0	-0.0	-0.0	-0.0	-0.0	-0.0	-0.0	-0.0	-0.0	-0.0	-0.0
0.012	-0.0	-0.0	-0.0	4.22315788269043	19.76679229736328	-829.9063110351562	-0.0	-0.0	-0.0	-0.0	-0.0	-0.0	-0.0	-0.0	-0.0	-0.0	-0.0	-0.0
0.0125	-0.0	-0.0	-0.0	5.078200817108154	18.82349395751953	-832.0650024414062	-0.0	-0.0	-0.0	-0.0	-0.0	-0.0	-0.0	-0.0	-0.0	-0.0	-0.0	-0.0
0.013000000000000001	-0.0	-0.0	-0.0	5.5997314453125	18.460248947143555	-831.711669921875	-0.0	-0.0	-0.0	-0.0	-0.0	-0.0	-0.0	-0.0	-0.0	-0.0	-0.0	-0.0
0.0135	-0.0	-0.0	-0.0	5.980562210083008	17.76113510131836	-831.8209228515625	-0.0	-0.0	-0.0	-0.0	-0.0	-0.0	-0.0	-0.0	-0.0	-0.0	-0.0	-0.0
0.014	-0.0	-0.0	-0.0	6.255219459533691	17.11652946472168	-831.7802734375	-0.0	-0.0	-0.0	-0.0	-0.0	-0.0	-0.0	-0.0	-0.0	-0.0	-0.0	-0.0
0.0145	-0.0	-0.0	-0.0	6.862167835235596	16.31789779663086	-830.9766235351562	-0.0	-0.0	-0.0	-0.0	-0.0	-0.0	-0.0	-0.0	-0.0	-0.0	-0.0	-0.0
0.015	-0.0	-0.0	-0.0	7.304590702056885	15.25551414489746	-830.9760131835938	-0.0	-0.0	-0.0	-0.0	-0.0	-0.0	-0.0	-0.0	-0.0	-0.0	-0.0	-0.0
0.0155	-0.0	-0.0	-0.0	7.526024341583252	13.900752067565918	-827.8679809570312	-0.0	-0.0	-0.0	-0.0	-0.0	-0.0	-0.0	-0.0	-0.0	-0.0	-0.0	-0.0
0.016	-0.0	-0.0	-0.0	8.11453628540039	11.87242603302002	-825.0856323242188	-0.0	-0.0	-0.0	-0.0	-0.0	-0.0	-0.0	-0.0	-0.0	-0.0	-0.0	-0.0
0.0165	-0.0	-0.0	-0.0	9.323233604431152	10.335474014282228	-824.6317749023438	-0.0	-0.0	-0.0	-0.0	-0.0	-0.0	-0.0	-0.0	-0.0	-0.0	-0.0	-0.0
0.017	-0.0	-0.0	-0.0	9.59781265258789	8.74953556060791	-822.1736450195312	-0.0	-0.0	-0.0	-0.0	-0.0	-0.0	-0.0	-0.0	-0.0	-0.0	-0.0	-0.0
0.0175	-0.0	-0.0	-0.0	10.322318077087402	6.610551357269287	-819.4364624023438	-0.0	-0.0	-0.0	-0.0	-0.0	-0.0	-0.0	-0.0	-0.0	-0.0	-0.0	-0.0
0.018000000000000002	-0.0	-0.0	-0.0	10.612296104431152	4.820544719696045	-816.3177490234375	-0.0	-0.0	-0.0	-0.0	-0.0	-0.0	-0.0	-0.0	-0.0	-0.0	-0.0	-0.0
0.0185	-0.0	-0.0	-0.0	10.70526123046875	3.457146644592285	-814.8911743164062	-0.0	-0.0	-0.0	-0.0	-0.0	-0.0	-0.0	-0.0	-0.0	-0.0	-0.0	-0.0
0.019	-0.0	-0.0	-0.0	11.318251609802246	1.6196441650390625	-814.4329833984375	-0.0	-0.0	-0.0	-0.0	-0.0	-0.0	-0.0	-0.0	-0.0	-0.0	-0.0	-0.0
0.0195	-0.0	-0.0	-0.0	11.4189453125	0.1122323870658874	-810.99267578125	-0.0	-0.0	-0.0	-0.0	-0.0	-0.0	-0.0	-0.0	-0.0	-0.0	-0.0	-0.0
0.02	-0.0	-0.0	-0.0	12.202388763427734	-0.9068509340286256	-809.5346069335938	-0.0	-0.0	-0.0	-0.0	-0.0	-0.0	-0.0	-0.0	-0.0	-0.0	-0.0	-0.0
0.0205	-0.0	-0.0	-0.0	12.477691650390623	-1.8717384338378904	-809.841552734375	-0.0	-0.0	-0.0	-0.0	-0.0	-0.0	-0.0	-0.0	-0.0	-0.0	-0.0	-0.0
0.021	-0.0	-0.0	-0.0	12.761052131652832	-2.596618890762329	-806.325439453125	-0.0	-0.0	-0.0	-0.0	-0.0	-0.0	-0.0	-0.0	-0.0	-0.0	-0.0	-0.0
0.021500000000000002	-0.0	-0.0	-0.0	12.68383502960205	-1.8916492462158203	-805.6192016601562	-0.0	-0.0	-0.0	-0.0	-0.0	-0.0	-0.0	-0.0	-0.0	-0.0	-0.0	-0.0
0.022	-0.0	-0.0	-0.0	12.594770431518556	-2.1471667289733887	-804.5439453125	-0.0	-0.0	-0.0	-0.0	-0.0	-0.0	-0.0	-0.0	-0.0	-0.0	-0.0	-0.0
0.0225	-0.0	-0.0	-0.0	13.028782844543455	-1.3571789264678955	-800.9639892578125	-0.0	-0.0	-0.0	-0.0	-0.0	-0.0	-0.0	-0.0	-0.0	-0.0	-0.0	-0.0
0.023	-0.0	-0.0	-0.0	12.412514686584473	-0.7980926036834717	-798.089599609375	-0.0	-0.0	-0.0	-0.0	-0.0	-0.0	-0.0	-0.0	-0.0	-0.0	-0.0	-0.0
0.0235	-0.0	-0.0	-0.0	11.516398429870604	0.0767782330513	-793.54638671875	-0.0	-0.0	-0.0	-0.0	-0.0	-0.0	-0.0	-0.0	-0.0	-0.0	-0.0	-0.0
0.024	-0.0	-0.0	-0.0	11.524746894836426	1.332811951637268	-787.6241455078125	-0.0	-0.0	-0.0	-0.0	-0.0	-0.0	-0.0	-0.0	-0.0	-0.0	-0.0	-0.0
0.0245	-0.0	-0.0	-0.0	10.972892761230469	2.3173904418945312	-784.0594482421875	-0.0	-0.0	-0.0	-0.0	-0.0	-0.0	-0.0	-0.0	-0.0	-0.0	-0.0	-0.0
0.025	-0.0	-0.0	-0.0	10.526840209960938	3.883789777755737	-781.7041015625	-0.0	-0.0	-0.0	-0.0	-0.0	-0.0	-0.0	-0.0	-0.0	-0.0	-0.0	-0.0
0.025500000000000002	-0.0	-0.0	-0.0	10.89219570159912	4.358883857727051	-780.5108642578125	-0.0	-0.0	-0.0	-0.0	-0.0	-0.0	-0.0	-0.0	-0.0	-0.0	-0.0	-0.0
0.026000000000000002	-0.0	-0.0	-0.0	10.021556854248049	4.787367820739746	-782.5619506835938	-0.0	-0.0	-0.0	-0.0	-0.0	-0.0	-0.0	-0.0	-0.0	-0.0	-0.0	-0.0
0.0265	-0.0	-0.0	-0.0	9.567120552062988	4.0238142013549805	-780.9492797851562	-0.0	-0.0	-0.0	-0.0	-0.0	-0.0	-0.0	-0.0	-0.0	-0.0	-0.0	-0.0
0.027	-0.0	-0.0	-0.0	10.272275924682615	3.73912501335144	-782.6640014648438	-0.0	-0.0	-0.0	-0.0	-0.0	-0.0	-0.0	-0.0	-0.0	-0.0	-0.0	-0.0
0.0275	-0.0	-0.0	-0.0	10.442011833190918	3.641212940216065	-784.800537109375	-0.0	-0.0	-0.0	-0.0	-0.0	-0.0	-0.0	-0.0	-0.0	-0.0	-0.0	-0.0
0.028	-0.0	-0.0	-0.0	9.897948265075684	3.551973342895508	-785.8078002929688	-0.0	-0.0	-0.0	-0.0	-0.0	-0.0	-0.0	-0.0	-0.0	-0.0	-0.0	-0.0
0.0285	-0.0	-0.0	-0.0	10.785562515258787	2.8521728515625	-790.734619140625	-0.0	-0.0	-0.0	-0.0	-0.0	-0.0	-0.0	-0.0	-0.0	-0.0	-0.0	-0.0
0.029	-0.0	-0.0	-0.0	11.146836280822754	3.03490686416626	-794.3370971679688	-0.0	-0.0	-0.0	-0.0	-0.0	-0.0	-0.0	-0.0	-0.0	-0.0	-0.0	-0.0
0.029500000000000002	-0.0	-0.0	-0.0	11.503642082214355	2.40652084350586	-797.5697021484375	-0.0	-0.0	-0.0	-0.0	-0.0	-0.0	-0.0	-0.0	-0.0	-0.0	-0.0	-0.0
0.03	-0.0	-0.0	-0.0	11.954208374023438	1.711661696434021	-802.3167114257812	-0.0	-0.0	-0.0	-0.0	-0.0	-0.0	-0.0	-0.0	-0.0	-0.0	-0.0	-0.0
0.0305	-0.0	-0.0	-0.0	11.450979232788086	1.1495509147644043	-806.4818115234375	-0.0	-0.0	-0.0	-0.0	-0.0	-0.0	-0.0	-0.0	-0.0	-0.0	-0.0	-0.0
0.031	-0.0	-0.0	-0.0	11.395881652832031	0.5670421123504639	-807.4424438476562	-0.0	-0.0	-0.0	-0.0	-0.0	-0.0	-0.0	-0.0	-0.0	-0.0	-0.0	-0.0
0.0315	-0.0	-0.0	-0.0	10.620699882507324	0.0278695821762084	-811.8134765625	-0.0	-0.0	-0.0	-0.0	-0.0	-0.0	-0.0	-0.0	-0.0	-0.0	-0.0	-0.0
0.032	-0.0	-0.0	-0.0	10.84627628326416	-0.6896852254867554	-811.2542724609375	-0.0	-0.0	-0.0	-0.0	-0.0	-0.0	-0.0	-0.0	-0.0	-0.0	-0.0	-0.0
0.0325	-0.0	-0.0	-0.0	9.667716979980469	-1.2478256225585938	-811.6635131835938	-0.0	-0.0	-0.0	-0.0	-0.0	-0.0	-0.0	-0.0	-0.0	-0.0	-0.0	-0.0
0.033	-0.0	-0.0	-0.0	9.817904472351074	-2.387545347213745	-813.3170166015625	-0.0	-0.0	-0.0	-0.0	-0.0	-0.0	-0.0	-0.0	-0.0	-0.0	-0.0	-0.0
0.0335	-0.0	-0.0	-0.0	9.198251724243164	-3.0160927772521973	-814.2122802734375	-0.0	-0.0	-0.0	-0.0	-0.0	-0.0	-0.0	-0.0	-0.0	-0.0	-0.0	-0.0
0.034	-0.0	-0.0	-0.0	9.20311450958252	-3.926543951034546	-816.1607666015625	-0.0	-0.0	-0.0	-0.0	-0.0	-0.0	-0.0	-0.0	-0.0	-0.0	-0.0	-0.0
0.0345	-0.0	-0.0	-0.0	9.010261535644531	-4.044767379760742	-818.3370361328125	-0.0	-0.0	-0.0	-0.0	-0.0	-0.0	-0.0	-0.0	-0.0	-0.0	-0.0	-0.0
0.035	-0.0	-0.0	-0.0	8.40043830871582	-4.288017749786377	-817.8680419921875	-0.0	-0.0	-0.0	-0.0	-0.0	-0.0	-0.0	-0.0	-0.0	-0.0	-0.0	-0.0
0.035500000000000004	-0.0	-0.0	-0.0	7.959373474121094	-5.169563293457031	-817.611572265625	-0.0	-0.0	-0.0	-0.0	-0.0	-0.0	-0.0	-0.0	-0.0	-0.0	-0.0	-0.0
0.036000000000000004	-0.0	-0.0	-0.0	7.771206378936768	-6.308492183685303	-816.9638671875	-0.0	-0.0	-0.0	-0.0	-0.0	-0.0	-0.0	-0.0	-0.0	-0.0	-0.0	-0.0
0.0365	-0.0	-0.0	-0.0	7.845542430877685	-6.664868354797363	-816.9840698242188	-0.0	-0.0	-0.0	-0.0	-0.0	-0.0	-0.0	-0.0	-0.0	-0.0	-0.0	-0.0
0.037	-0.0	-0.0	-0.0	7.1368408203125	-7.640212059020996	-816.552001953125	-0.0	-0.0	-0.0	-0.0	-0.0	-0.0	-0.0	-0.0	-0.0	-0.0	-0.0	-0.0
0.0375	-0.0	-0.0	-0.0	7.0627546310424805	-7.853549003601074	-815.5922241210938	-0.0	-0.0	-0.0	-0.0	-0.0	-0.0	-0.0	-0.0	-0.0	-0.0	-0.0	-0.0
0.038	-0.0	-0.0	-0.0	7.294950485229492	-8.304347038269043	-816.8448486328125	-0.0	-0.0	-0.0	-0.0	-0.0	-0.0	-0.0	-0.0	-0.0	-0.0	-0.0	-0.0
0.0385	-0.0	-0.0	-0.0	7.457955360412598	-9.244065284729004	-814.1605224609375	-0.0	-0.0	-0.0	-0.0	-0.0	-0.0	-0.0	-0.0	-0.0	-0.0	-0.0	-0.0
0.039	-0.0	-0.0	-0.0	6.88463020324707	-10.843094825744627	-815.8253173828125	-0.0	-0.0	-0.0	-0.0	-0.0	-0.0	-0.0	-0.0	-0.0	-0.0	-0.0	-0.0
